<svg xmlns="http://www.w3.org/2000/svg" width="56" height="56" viewBox="0 0 56 56">
  <g fill="#FFFFFF">
    <g transform="translate(1.836 33.05)">
      <path d="M2.11147541,7.98688525 L1.2852459,5.87540984 C0.275409836,3.39672131 1.10163934,1.56065574 3.39672131,0.642622951 C5.69180328,-0.275409836 7.52786885,0.550819672 8.44590164,3.0295082 L9.27213115,5.14098361 L2.11147541,7.98688525 Z M7.3442623,3.58032787 C6.70163934,2.01967213 5.69180328,1.19344262 3.8557377,1.92786885 C2.11147541,2.5704918 1.7442623,3.58032787 2.47868852,5.41639344 L2.75409836,6.24262295 L7.61967213,4.3147541 L7.3442623,3.58032787 Z"/>
      <path d="M2.01967213,8.1704918 L1.19344262,5.96721311 C0.183606557,3.48852459 1.00983607,1.56065574 3.39672131,0.550819672 C5.69180328,-0.367213115 7.61967213,0.459016393 8.6295082,2.93770492 L9.4557377,5.14098361 L2.01967213,8.1704918 Z M4.03934426,0.550819672 C3.8557377,0.642622951 3.67213115,0.642622951 3.48852459,0.73442623 C1.19344262,1.65245902 0.459016393,3.48852459 1.37704918,5.87540984 L2.20327869,7.89508197 L9.18032787,5.04918033 L8.35409836,3.0295082 C7.52786885,0.918032787 5.96721311,-2.88657986e-15 4.03934426,0.550819672 Z M2.66229508,6.33442623 L2.29508197,5.41639344 C1.56065574,3.58032787 2.01967213,2.5704918 3.76393443,1.83606557 C4.68196721,1.46885246 5.41639344,1.46885246 5.96721311,1.83606557 C6.51803279,2.11147541 6.97704918,2.66229508 7.3442623,3.58032787 L7.61967213,4.3147541 L2.66229508,6.33442623 Z M4.3147541,1.92786885 C4.13114754,1.92786885 4.03934426,2.01967213 3.8557377,2.11147541 C2.20327869,2.75409836 1.83606557,3.67213115 2.5704918,5.41639344 L2.84590164,6.05901639 L7.43606557,4.22295082 L7.25245902,3.67213115 C6.8852459,2.84590164 6.51803279,2.29508197 5.96721311,2.01967213 C5.50819672,1.7442623 4.95737705,1.7442623 4.3147541,1.92786885 Z"/>
    </g>
    <g transform="translate(0 21.115)">
      <path d="M5.41639344,6.8852459 L0.73442623,6.24262295 L0.918032787,4.86557377 L5.41639344,5.50819672 C6.60983607,5.69180328 7.43606557,5.41639344 7.52786885,4.22295082 C7.71147541,2.93770492 7.06885246,2.5704918 5.78360656,2.38688525 L1.2852459,1.7442623 L1.46885246,0.367213115 L6.05901639,1.00983607 C7.98688525,1.2852459 9.08852459,2.29508197 8.81311475,4.40655738 C8.6295082,6.42622951 7.25245902,7.06885246 5.41639344,6.8852459 Z"/>
      <path d="M7.06885246,6.8852459 C6.60983607,6.97704918 6.05901639,7.06885246 5.41639344,6.97704918 L0.642622951,6.33442623 L0.826229508,4.77377049 L5.41639344,5.41639344 C6.05901639,5.50819672 6.51803279,5.50819672 6.79344262,5.32459016 C7.16065574,5.14098361 7.3442623,4.77377049 7.43606557,4.22295082 C7.61967213,3.12131148 7.16065574,2.66229508 5.78360656,2.47868852 L1.19344262,1.83606557 L1.37704918,0.275409836 L6.15081967,0.918032787 C8.26229508,1.19344262 9.27213115,2.47868852 8.99672131,4.40655738 C8.81311475,5.41639344 8.44590164,6.15081967 7.80327869,6.60983607 C7.61967213,6.70163934 7.3442623,6.79344262 7.06885246,6.8852459 Z M0.826229508,6.05901639 L5.41639344,6.70163934 C6.33442623,6.79344262 7.16065574,6.70163934 7.71147541,6.33442623 C8.35409836,5.96721311 8.72131148,5.23278689 8.81311475,4.22295082 C9.08852459,2.29508197 8.1704918,1.19344262 6.15081967,0.918032787 L1.65245902,0.275409836 L1.46885246,1.46885246 L5.87540984,2.11147541 C6.8852459,2.29508197 7.89508197,2.5704918 7.71147541,4.03934426 C7.61967213,4.68196721 7.3442623,5.04918033 6.97704918,5.32459016 C6.60983607,5.50819672 6.15081967,5.6 5.41639344,5.41639344 L1.00983607,4.77377049 L0.826229508,6.05901639 Z"/>
    </g>
    <g transform="translate(4.59 10.098)">
      <path d="M4.22295082,7.71147541 L4.77377049,6.33442623 C5.50819672,6.79344262 6.33442623,6.51803279 6.79344262,5.78360656 C7.25245902,5.14098361 7.25245902,4.49836066 6.70163934,4.13114754 C5.6,3.30491803 3.67213115,6.60983607 1.65245902,5.14098361 C0.642622951,4.40655738 0.642622951,3.0295082 1.37704918,1.92786885 C1.92786885,1.10163934 2.75409836,0.642622951 3.8557377,0.73442623 L3.67213115,2.11147541 C3.12131148,2.01967213 2.5704918,2.20327869 2.29508197,2.66229508 C2.01967213,3.12131148 2.01967213,3.67213115 2.47868852,3.94754098 C3.48852459,4.68196721 5.41639344,1.46885246 7.52786885,2.93770492 C8.72131148,3.76393443 8.72131148,5.32459016 7.89508197,6.51803279 C6.97704918,7.71147541 5.6,8.35409836 4.22295082,7.71147541 Z"/>
      <path d="M6.05901639,7.98688525 C5.50819672,8.1704918 4.86557377,8.07868852 4.13114754,7.80327869 L4.03934426,7.80327869 L4.59016393,6.24262295 L4.68196721,6.33442623 C5.32459016,6.70163934 6.05901639,6.51803279 6.51803279,5.87540984 C6.70163934,5.6 6.8852459,5.23278689 6.79344262,4.95737705 C6.79344262,4.68196721 6.60983607,4.49836066 6.33442623,4.3147541 C5.96721311,4.03934426 5.32459016,4.40655738 4.68196721,4.86557377 C3.76393443,5.50819672 2.5704918,6.24262295 1.2852459,5.32459016 C0.275409836,4.59016393 0.0918032787,3.21311475 0.918032787,2.01967213 C1.56065574,1.10163934 2.47868852,0.642622951 3.48852459,0.826229508 L3.58032787,0.826229508 L3.48852459,2.38688525 L3.39672131,2.38688525 C2.84590164,2.29508197 2.38688525,2.47868852 2.11147541,2.84590164 C2.01967213,3.0295082 1.92786885,3.30491803 1.92786885,3.48852459 C1.92786885,3.67213115 2.01967213,3.8557377 2.20327869,4.03934426 C2.5704918,4.3147541 3.12131148,3.94754098 3.76393443,3.48852459 C4.77377049,2.84590164 5.96721311,2.01967213 7.25245902,3.0295082 C8.44590164,3.8557377 8.53770492,5.41639344 7.61967213,6.79344262 C7.43606557,7.25245902 6.79344262,7.71147541 6.05901639,7.98688525 Z M4.3147541,7.61967213 C5.69180328,8.26229508 6.97704918,7.52786885 7.71147541,6.51803279 C8.6295082,5.23278689 8.44590164,3.8557377 7.3442623,3.0295082 C6.15081967,2.20327869 5.04918033,2.93770492 4.03934426,3.58032787 C3.30491803,4.03934426 2.75409836,4.40655738 2.29508197,4.13114754 C2.11147541,3.94754098 1.92786885,3.76393443 1.92786885,3.48852459 C1.92786885,3.21311475 2.01967213,2.93770492 2.11147541,2.75409836 C2.38688525,2.29508197 2.93770492,2.11147541 3.48852459,2.20327869 L3.58032787,1.00983607 C2.66229508,0.918032787 1.83606557,1.37704918 1.2852459,2.11147541 C0.642622951,3.0295082 0.550819672,4.40655738 1.56065574,5.14098361 C2.66229508,5.96721311 3.76393443,5.23278689 4.68196721,4.59016393 C5.41639344,4.13114754 6.05901639,3.67213115 6.60983607,4.03934426 C6.8852459,4.22295082 7.06885246,4.49836066 7.06885246,4.86557377 C7.06885246,5.14098361 6.97704918,5.50819672 6.70163934,5.87540984 C6.15081967,6.60983607 5.41639344,6.8852459 4.68196721,6.51803279 L4.3147541,7.61967213 Z"/>
    </g>
    <g transform="translate(11.934 1.836)">
      <polygon points="3.305 3.489 1.193 4.59 .643 3.489 6.151 .551 6.702 1.652 4.498 2.754 7.528 8.538 6.334 9.18"/>
      <path d="M6.33442623,9.36393443 L3.30491803,3.58032787 L1.19344262,4.77377049 L0.550819672,3.48852459 L6.24262295,0.367213115 L6.8852459,1.65245902 L4.77377049,2.84590164 L7.80327869,8.6295082 L6.33442623,9.36393443 Z M3.30491803,3.30491803 L6.33442623,9.08852459 L7.3442623,8.53770492 L4.40655738,2.75409836 L6.51803279,1.56065574 L6.05901639,0.642622951 L0.73442623,3.48852459 L1.19344262,4.40655738 L3.30491803,3.30491803 Z"/>
    </g>
    <g transform="translate(23.869)">
      <polygon points=".734 .826 2.111 .643 2.938 8.446 1.561 8.63"/>
      <path d="M3.12131148,8.53770492 L1.56065574,8.72131148 L0.73442623,0.73442623 L2.29508197,0.550819672 L3.12131148,8.53770492 Z M1.65245902,8.44590164 L2.84590164,8.35409836 L2.01967213,0.73442623 L0.918032787,0.918032787 L1.65245902,8.44590164 Z"/>
    </g>
    <g transform="translate(31.213 .918)">
      <polygon points="2.57 .092 3.856 .551 5.233 6.793 6.885 1.561 8.17 2.02 5.784 9.456 4.498 8.997 3.121 2.754 1.469 7.987 .184 7.528"/>
      <path d="M5.96721311,9.54754098 L4.49836066,9.08852459 L3.21311475,3.12131148 L1.56065574,8.07868852 L0,7.61967213 L2.47868852,0 L3.94754098,0.459016393 L3.94754098,0.550819672 L5.23278689,6.42622951 L6.8852459,1.46885246 L8.35409836,1.92786885 L8.35409836,2.01967213 L5.96721311,9.54754098 Z M4.59016393,8.90491803 L5.78360656,9.27213115 L8.1704918,2.01967213 L7.06885246,1.65245902 L5.32459016,7.06885246 L3.8557377,0.550819672 L2.66229508,0.183606557 L0.275409836,7.43606557 L1.37704918,7.80327869 L3.12131148,2.29508197 L4.59016393,8.90491803 Z"/>
    </g>
    <g transform="translate(10.098 7.344)">
      <g transform="translate(0 35.803)">
        <path d="M0.918032787,3.94754098 L2.20327869,4.49836066 C1.7442623,5.23278689 2.01967213,6.05901639 2.66229508,6.51803279 C3.30491803,6.97704918 3.94754098,6.97704918 4.3147541,6.42622951 C5.14098361,5.32459016 1.92786885,3.30491803 3.39672131,1.37704918 C4.13114754,0.367213115 5.50819672,0.367213115 6.51803279,1.10163934 C7.3442623,1.65245902 7.80327869,2.5704918 7.61967213,3.67213115 L6.24262295,3.58032787 C6.33442623,3.0295082 6.15081967,2.47868852 5.69180328,2.20327869 C5.23278689,1.92786885 4.68196721,1.92786885 4.40655738,2.29508197 C3.67213115,3.30491803 6.8852459,5.32459016 5.32459016,7.43606557 C4.49836066,8.6295082 2.93770492,8.6295082 1.7442623,7.71147541 C0.826229508,6.70163934 0.183606557,5.32459016 0.918032787,3.94754098 Z"/>
        <path d="M4.3147541,8.1704918 C3.58032787,8.35409836 2.66229508,8.1704918 1.83606557,7.61967213 C0.73442623,6.79344262 9.43689571e-16,5.32459016 0.73442623,3.8557377 L0.73442623,3.76393443 L2.29508197,4.40655738 L2.20327869,4.49836066 C1.83606557,5.14098361 2.01967213,5.87540984 2.66229508,6.42622951 C2.93770492,6.60983607 3.30491803,6.79344262 3.48852459,6.70163934 C3.76393443,6.70163934 3.94754098,6.51803279 4.13114754,6.33442623 C4.40655738,5.96721311 4.03934426,5.32459016 3.67213115,4.68196721 C3.12131148,3.67213115 2.29508197,2.47868852 3.21311475,1.2852459 C3.58032787,0.73442623 4.13114754,0.459016393 4.77377049,0.459016393 C5.32459016,0.459016393 5.96721311,0.642622951 6.51803279,1.00983607 C7.43606557,1.65245902 7.80327869,2.5704918 7.71147541,3.67213115 L7.71147541,3.76393443 L6.15081967,3.67213115 L6.15081967,3.58032787 C6.24262295,3.0295082 6.05901639,2.5704918 5.69180328,2.29508197 C5.50819672,2.20327869 5.32459016,2.11147541 5.04918033,2.11147541 C4.86557377,2.11147541 4.68196721,2.20327869 4.49836066,2.38688525 C4.22295082,2.75409836 4.59016393,3.30491803 4.95737705,3.94754098 C5.6,4.95737705 6.33442623,6.15081967 5.41639344,7.52786885 C5.23278689,7.71147541 4.77377049,8.07868852 4.3147541,8.1704918 Z M0.918032787,4.03934426 C0.275409836,5.41639344 1.00983607,6.70163934 2.01967213,7.43606557 C3.30491803,8.35409836 4.68196721,8.26229508 5.41639344,7.16065574 C6.24262295,5.96721311 5.6,4.86557377 4.95737705,3.8557377 C4.49836066,3.12131148 4.13114754,2.5704918 4.49836066,2.11147541 C4.68196721,1.92786885 4.86557377,1.7442623 5.14098361,1.7442623 C5.41639344,1.7442623 5.69180328,1.83606557 5.87540984,1.92786885 C6.33442623,2.20327869 6.51803279,2.75409836 6.42622951,3.30491803 L7.61967213,3.39672131 C7.71147541,2.47868852 7.3442623,1.65245902 6.51803279,1.10163934 C6.05901639,0.73442623 5.41639344,0.550819672 4.86557377,0.550819672 C4.3147541,0.550819672 3.76393443,0.826229508 3.48852459,1.2852459 C2.66229508,2.38688525 3.39672131,3.48852459 3.94754098,4.49836066 C4.40655738,5.23278689 4.77377049,5.87540984 4.40655738,6.42622951 C4.22295082,6.70163934 3.94754098,6.8852459 3.58032787,6.8852459 C3.30491803,6.8852459 2.93770492,6.79344262 2.5704918,6.51803279 C1.83606557,5.96721311 1.65245902,5.23278689 2.01967213,4.49836066 L0.918032787,4.03934426 Z"/>
      </g>
      <g transform="translate(11.016 39.475)">
        <polygon points="2.479 1.928 .092 1.469 .367 .275 6.518 1.469 6.243 2.662 3.856 2.203 2.662 8.63 1.285 8.354"/>
        <path d="M2.75409836,8.81311475 L1.19344262,8.53770492 L2.38688525,2.11147541 L0,1.56065574 L0.275409836,0.0918032787 L6.60983607,1.2852459 L6.33442623,2.75409836 L3.94754098,2.29508197 L2.75409836,8.81311475 Z M1.37704918,8.35409836 L2.5704918,8.53770492 L3.76393443,2.11147541 L6.15081967,2.5704918 L6.33442623,1.56065574 L0.367213115,0.459016393 L0.183606557,1.46885246 L2.5704918,1.92786885 L1.37704918,8.35409836 Z"/>
      </g>
      <g transform="translate(20.197 39.475)">
        <path d="M0.73442623,1.10163934 L3.12131148,0.459016393 C4.49836066,0.0918032787 5.96721311,0.550819672 6.33442623,1.92786885 C6.60983607,2.84590164 6.15081967,3.76393443 5.41639344,4.3147541 L8.44590164,7.06885246 L6.8852459,7.52786885 L4.13114754,4.77377049 L3.21311475,5.04918033 L4.13114754,8.26229508 L2.75409836,8.6295082 L0.73442623,1.10163934 Z M4.13114754,3.58032787 C4.86557377,3.30491803 5.14098361,2.84590164 5.04918033,2.29508197 C4.86557377,1.65245902 4.3147541,1.37704918 3.48852459,1.65245902 L2.38688525,1.92786885 L2.93770492,3.94754098 L4.13114754,3.58032787 Z"/>
        <path d="M2.75409836,8.81311475 L0.642622951,1.10163934 L3.12131148,0.367213115 L3.12131148,0.367213115 C4.68196721,-0.0918032787 6.05901639,0.550819672 6.42622951,1.92786885 C6.70163934,2.84590164 6.33442623,3.76393443 5.6,4.3147541 L8.6295082,7.16065574 L6.8852459,7.61967213 L4.13114754,4.86557377 L3.39672131,5.04918033 L4.3147541,8.26229508 L2.75409836,8.81311475 Z M3.12131148,4.95737705 L4.22295082,4.68196721 L6.97704918,7.43606557 L8.26229508,7.06885246 L5.32459016,4.3147541 L5.41639344,4.22295082 C6.24262295,3.67213115 6.51803279,2.84590164 6.33442623,1.92786885 C5.96721311,0.459016393 4.49836066,0.183606557 3.30491803,0.459016393 L3.30491803,0.459016393 L1.00983607,1.10163934 L3.0295082,8.44590164 L3.12131148,4.95737705 Z M2.93770492,4.03934426 L2.29508197,1.83606557 L3.48852459,1.46885246 L3.48852459,1.46885246 C4.3147541,1.2852459 4.95737705,1.56065574 5.14098361,2.20327869 C5.32459016,2.84590164 4.95737705,3.39672131 4.22295082,3.58032787 L2.93770492,4.03934426 Z M2.5704918,2.01967213 L3.0295082,3.8557377 L4.13114754,3.58032787 C4.77377049,3.39672131 5.04918033,2.93770492 4.95737705,2.38688525 C4.77377049,1.83606557 4.22295082,1.56065574 3.58032787,1.7442623 L3.58032787,1.7442623 L2.5704918,2.01967213 Z"/>
      </g>
      <g transform="translate(29.377 33.05)">
        <polygon points=".275 4.039 4.131 .551 4.957 1.469 2.203 4.039 3.489 5.508 6.151 3.03 6.977 3.948 4.315 6.426 5.6 7.895 8.354 5.325 9.272 6.334 5.508 9.731"/>
        <path d="M5.50819672,9.9147541 L0.0918032787,4.03934426 L4.03934426,0.367213115 L5.04918033,1.46885246 L2.29508197,4.03934426 L3.48852459,5.32459016 L6.15081967,2.84590164 L7.16065574,3.94754098 L4.49836066,6.42622951 L5.69180328,7.71147541 L8.44590164,5.14098361 L9.4557377,6.24262295 L5.50819672,9.9147541 Z M0.367213115,4.03934426 L5.50819672,9.63934426 L9.18032787,6.24262295 L8.44590164,5.41639344 L5.69180328,7.98688525 L4.22295082,6.42622951 L6.8852459,3.94754098 L6.15081967,3.12131148 L3.48852459,5.6 L2.01967213,4.03934426 L4.77377049,1.46885246 L4.03934426,0.642622951 L0.367213115,4.03934426 Z"/>
      </g>
      <g transform="translate(34.885 24.787)">
        <polygon points=".459 5.784 2.479 1.01 3.672 1.469 2.203 4.957 4.039 5.692 5.416 2.295 6.61 2.754 5.233 6.151 6.977 6.885 8.446 3.397 9.639 3.948 7.62 8.721"/>
        <path d="M7.71147541,8.90491803 L0.367213115,5.87540984 L2.38688525,0.826229508 L3.76393443,1.37704918 L2.29508197,4.86557377 L3.94754098,5.50819672 L5.32459016,2.11147541 L6.70163934,2.66229508 L5.32459016,6.05901639 L6.8852459,6.70163934 L8.35409836,3.21311475 L9.73114754,3.76393443 L7.71147541,8.90491803 Z M0.642622951,5.78360656 L7.61967213,8.72131148 L9.54754098,4.13114754 L8.53770492,3.67213115 L7.06885246,7.16065574 L5.14098361,6.33442623 L6.51803279,2.93770492 L5.50819672,2.47868852 L4.13114754,5.87540984 L2.11147541,5.04918033 L3.58032787,1.56065574 L2.5704918,1.10163934 L0.642622951,5.78360656 Z"/>
      </g>
      <g transform="translate(36.721 13.77)">
        <path d="M5.14098361,7.71147541 C3.0295082,7.98688525 1.00983607,6.97704918 0.73442623,4.40655738 C0.550819672,2.84590164 1.19344262,1.56065574 2.5704918,0.73442623 L3.21311475,2.01967213 C2.20327869,2.38688525 1.92786885,3.30491803 2.01967213,4.3147541 C2.20327869,5.96721311 3.48852459,6.51803279 4.86557377,6.33442623 C6.42622951,6.15081967 7.52786885,5.32459016 7.3442623,3.67213115 C7.25245902,2.66229508 6.79344262,2.01967213 5.69180328,1.7442623 L6.05901639,0.367213115 C7.52786885,0.826229508 8.53770492,1.92786885 8.6295082,3.48852459 C8.99672131,6.05901639 7.3442623,7.52786885 5.14098361,7.71147541 Z"/>
        <path d="M5.96721311,7.71147541 C5.69180328,7.80327869 5.41639344,7.80327869 5.14098361,7.89508197 C3.21311475,8.07868852 0.918032787,7.3442623 0.642622951,4.49836066 C0.459016393,2.84590164 1.10163934,1.56065574 2.47868852,0.73442623 L2.5704918,0.642622951 L3.30491803,2.11147541 L3.21311475,2.11147541 C2.38688525,2.47868852 2.01967213,3.21311475 2.11147541,4.3147541 C2.29508197,5.69180328 3.30491803,6.42622951 4.86557377,6.24262295 C6.51803279,6.05901639 7.3442623,5.14098361 7.25245902,3.67213115 C7.16065574,2.66229508 6.60983607,2.11147541 5.69180328,1.83606557 L5.6,1.83606557 L6.05901639,0.275409836 L6.15081967,0.275409836 C7.71147541,0.73442623 8.6295082,1.92786885 8.81311475,3.48852459 C8.99672131,4.68196721 8.6295082,5.78360656 7.89508197,6.51803279 C7.43606557,7.06885246 6.79344262,7.52786885 5.96721311,7.71147541 Z M2.5704918,0.918032787 C1.2852459,1.65245902 0.73442623,2.93770492 0.918032787,4.40655738 C1.00983607,5.6 1.56065574,6.51803279 2.38688525,7.06885246 C3.12131148,7.52786885 4.13114754,7.80327869 5.23278689,7.61967213 C6.33442623,7.52786885 7.25245902,7.06885246 7.80327869,6.42622951 C8.44590164,5.69180328 8.81311475,4.68196721 8.6295082,3.48852459 C8.44590164,2.01967213 7.61967213,0.918032787 6.15081967,0.459016393 L5.78360656,1.65245902 C6.79344262,1.92786885 7.3442623,2.5704918 7.43606557,3.67213115 C7.61967213,5.23278689 6.70163934,6.24262295 4.86557377,6.51803279 C3.21311475,6.70163934 2.01967213,5.87540984 1.83606557,4.40655738 C1.7442623,3.30491803 2.11147541,2.47868852 2.93770492,2.11147541 L2.5704918,0.918032787 Z"/>
      </g>
      <g transform="translate(30.295)">
        <polygon points="5.325 11.2 4.498 10.098 7.711 7.62 2.203 7.069 1.102 5.508 5.508 6.059 7.252 .734 8.262 2.111 6.793 6.243 9.089 6.518 10.649 5.325 11.475 6.426"/>
        <path d="M5.32459016,11.2918033 L4.3147541,10.0065574 L7.43606557,7.61967213 L2.11147541,7.06885246 L0.826229508,5.32459016 L5.41639344,5.87540984 L7.16065574,0.459016393 L8.35409836,2.01967213 L6.97704918,6.15081967 L9.08852459,6.42622951 L10.7409836,5.14098361 L11.7508197,6.42622951 L5.32459016,11.2918033 Z M4.68196721,10.0983607 L5.41639344,11.0163934 L11.3836066,6.42622951 L10.6491803,5.50819672 L9.08852459,6.70163934 L6.70163934,6.42622951 L8.1704918,2.20327869 L7.25245902,1.00983607 L5.50819672,6.15081967 L1.2852459,5.6 L2.20327869,6.8852459 L7.89508197,7.43606557 L4.68196721,10.0983607 Z"/>
      </g>
    </g>
  </g>
</svg>
