<svg xmlns="http://www.w3.org/2000/svg" width="56" height="56" viewBox="0 0 56 56">
  <g fill="#000000">
    <path d="M3.8557377 41.2196721L3.0295082 39.0163934C2.01967213 36.5377049 2.84590164 34.6098361 5.23278689 33.6 7.52786885 32.6819672 9.4557377 33.5081967 10.4655738 35.9868852L11.2918033 38.1901639 3.8557377 41.2196721zM6.15081967 34.9770492C5.96721311 34.9770492 5.87540984 35.0688525 5.69180328 35.1606557 4.03934426 35.8032787 3.67213115 36.7213115 4.40655738 38.4655738L4.68196721 39.1081967 9.27213115 37.2721311 9.08852459 36.7213115C8.72131148 35.895082 8.35409836 35.3442623 7.80327869 35.0688525 7.3442623 34.7934426 6.79344262 34.7934426 6.15081967 34.9770492zM7.06885246 28C6.60983607 28.0918033 6.05901639 28.1836066 5.41639344 28.0918033L.642622951 27.4491803.826229508 25.8885246 5.41639344 26.5311475C6.05901639 26.6229508 6.51803279 26.6229508 6.79344262 26.4393443 7.16065574 26.2557377 7.3442623 25.8885246 7.43606557 25.3377049 7.61967213 24.2360656 7.16065574 23.7770492 5.78360656 23.5934426L1.19344262 22.9508197 1.37704918 21.3901639 6.15081967 22.0327869C8.26229508 22.3081967 9.27213115 23.5934426 8.99672131 25.5213115 8.81311475 26.5311475 8.44590164 27.2655738 7.80327869 27.7245902 7.61967213 27.8163934 7.3442623 27.9081967 7.06885246 28zM10.6491803 18.0852459C10.0983607 18.2688525 9.4557377 18.1770492 8.72131148 17.9016393L8.6295082 17.9016393 9.18032787 16.3409836 9.27213115 16.4327869C9.9147541 16.8 10.6491803 16.6163934 11.1081967 15.9737705 11.2918033 15.6983607 11.4754098 15.3311475 11.3836066 15.0557377 11.3836066 14.7803279 11.2 14.5967213 10.9245902 14.4131148 10.557377 14.1377049 9.9147541 14.504918 9.27213115 14.9639344 8.35409836 15.6065574 7.16065574 16.3409836 5.87540984 15.4229508 4.86557377 14.6885246 4.68196721 13.3114754 5.50819672 12.1180328 6.15081967 11.2 7.06885246 10.7409836 8.07868852 10.9245902L8.1704918 10.9245902 8.07868852 12.4852459 7.98688525 12.4852459C7.43606557 12.3934426 6.97704918 12.5770492 6.70163934 12.9442623 6.60983607 13.1278689 6.51803279 13.4032787 6.51803279 13.5868852 6.51803279 13.7704918 6.60983607 13.9540984 6.79344262 14.1377049 7.16065574 14.4131148 7.71147541 14.0459016 8.35409836 13.5868852 9.36393443 12.9442623 10.557377 12.1180328 11.842623 13.1278689 13.0360656 13.9540984 13.1278689 15.5147541 12.2098361 16.8918033 12.0262295 17.3508197 11.3836066 17.8098361 10.6491803 18.0852459z"/>
    <polygon points="18.269 11.2 15.239 5.416 13.128 6.61 12.485 5.325 18.177 2.203 18.82 3.489 16.708 4.682 19.738 10.466"/>
    <polygon points="26.99 8.538 25.43 8.721 24.603 .734 26.164 .551"/>
    <polygon points="37.18 10.466 35.711 10.007 34.426 4.039 32.774 8.997 31.213 8.538 33.692 .918 35.161 1.377 35.161 1.469 36.446 7.344 38.098 2.387 39.567 2.846 39.567 2.938"/>
    <g transform="translate(10.098 7.344)">
      <path d="M4.3147541,43.9737705 C3.58032787,44.157377 2.66229508,43.9737705 1.83606557,43.4229508 C0.73442623,42.5967213 8.32667268e-16,41.1278689 0.73442623,39.6590164 L0.73442623,39.5672131 L2.29508197,40.2098361 L2.20327869,40.3016393 C1.83606557,40.9442623 2.01967213,41.6786885 2.66229508,42.2295082 C2.93770492,42.4131148 3.30491803,42.5967213 3.48852459,42.504918 C3.76393443,42.504918 3.94754098,42.3213115 4.13114754,42.1377049 C4.40655738,41.7704918 4.03934426,41.1278689 3.67213115,40.4852459 C3.12131148,39.4754098 2.29508197,38.2819672 3.21311475,37.0885246 C3.58032787,36.5377049 4.13114754,36.2622951 4.77377049,36.2622951 C5.32459016,36.2622951 5.96721311,36.4459016 6.51803279,36.8131148 C7.43606557,37.4557377 7.80327869,38.3737705 7.71147541,39.4754098 L7.71147541,39.5672131 L6.15081967,39.4754098 L6.15081967,39.3836066 C6.24262295,38.8327869 6.05901639,38.3737705 5.69180328,38.0983607 C5.50819672,38.0065574 5.32459016,37.9147541 5.04918033,37.9147541 C4.86557377,37.9147541 4.68196721,38.0065574 4.49836066,38.1901639 C4.22295082,38.557377 4.59016393,39.1081967 4.95737705,39.7508197 C5.6,40.7606557 6.33442623,41.9540984 5.41639344,43.3311475 C5.23278689,43.5147541 4.77377049,43.8819672 4.3147541,43.9737705 Z"/>
      <polygon points="13.77 48.289 12.21 48.013 13.403 41.587 11.016 41.036 11.292 39.567 17.626 40.761 17.351 42.23 14.964 41.77"/>
      <path d="M22.9508197,48.2885246 L20.8393443,40.5770492 L23.3180328,39.842623 L23.3180328,39.842623 C24.8786885,39.3836066 26.2557377,40.0262295 26.6229508,41.4032787 C26.8983607,42.3213115 26.5311475,43.2393443 25.7967213,43.7901639 L28.8262295,46.6360656 L27.0819672,47.095082 L24.3278689,44.3409836 L23.5934426,44.5245902 L24.5114754,47.7377049 L22.9508197,48.2885246 Z M22.7672131,41.495082 L23.2262295,43.3311475 L24.3278689,43.0557377 C24.9704918,42.8721311 25.2459016,42.4131148 25.1540984,41.8622951 C24.9704918,41.3114754 24.4196721,41.0360656 23.7770492,41.2196721 L23.7770492,41.2196721 L22.7672131,41.495082 Z"/>
      <polygon points="34.885 42.964 29.469 37.089 33.416 33.416 34.426 34.518 31.672 37.089 32.866 38.374 35.528 35.895 36.538 36.997 33.875 39.475 35.069 40.761 37.823 38.19 38.833 39.292"/>
      <polygon points="42.597 33.692 35.252 30.662 37.272 25.613 38.649 26.164 37.18 29.652 38.833 30.295 40.21 26.898 41.587 27.449 40.21 30.846 41.77 31.489 43.239 28 44.616 28.551"/>
      <path d="M42.6885246,21.4819672 C42.4131148,21.5737705 42.1377049,21.5737705 41.8622951,21.6655738 C39.9344262,21.8491803 37.6393443,21.1147541 37.3639344,18.2688525 C37.1803279,16.6163934 37.8229508,15.3311475 39.2,14.504918 L39.2918033,14.4131148 L40.0262295,15.8819672 L39.9344262,15.8819672 C39.1081967,16.2491803 38.7409836,16.9836066 38.8327869,18.0852459 C39.0163934,19.4622951 40.0262295,20.1967213 41.5868852,20.0131148 C43.2393443,19.8295082 44.0655738,18.9114754 43.9737705,17.442623 C43.8819672,16.4327869 43.3311475,15.8819672 42.4131148,15.6065574 L42.3213115,15.6065574 L42.7803279,14.0459016 L42.8721311,14.0459016 C44.4327869,14.504918 45.3508197,15.6983607 45.5344262,17.2590164 C45.7180328,18.452459 45.3508197,19.5540984 44.6163934,20.2885246 C44.157377,20.8393443 43.5147541,21.2983607 42.6885246,21.4819672 Z"/>
      <polygon points="35.62 11.292 34.61 10.007 37.731 7.62 32.407 7.069 31.121 5.325 35.711 5.875 37.456 .459 38.649 2.02 37.272 6.151 39.384 6.426 41.036 5.141 42.046 6.426"/>
    </g>
  </g>
</svg>
